<?xml version="1.0" standalone="no"?>
<!DOCTYPE svg PUBLIC "-//W3C//DTD SVG 20010904//EN"
 "http://www.w3.org/TR/2001/REC-SVG-20010904/DTD/svg10.dtd">
<svg version="1.0" xmlns="http://www.w3.org/2000/svg"
 width="700.000000pt" height="700.000000pt" viewBox="0 0 700.000000 700.000000"
 preserveAspectRatio="xMidYMid meet">
<metadata>
Created by potrace 1.11, written by Peter Selinger 2001-2013
</metadata>
<g transform="translate(0.000000,700.000000) scale(0.100000,-0.100000)"
fill="#000000" stroke="none">
<path d="M2711 6985 c-24 -8 -62 -29 -85 -47 -38 -31 -46 -33 -122 -34 -130
-2 -208 -39 -272 -130 -50 -72 -60 -198 -22 -277 11 -22 19 -41 17 -43 -1 -1
-81 -40 -177 -88 -188 -92 -195 -96 -315 -171 -144 -89 -309 -211 -435 -320
-64 -55 -285 -279 -346 -350 -227 -263 -428 -596 -564 -930 -57 -141 -138
-403 -156 -505 -3 -14 -9 -41 -14 -60 -5 -19 -12 -55 -15 -80 -3 -25 -8 -52
-10 -60 -2 -8 -7 -39 -10 -69 -4 -30 -8 -61 -10 -71 -19 -99 -27 -530 -12
-685 9 -104 25 -227 37 -290 5 -27 12 -62 14 -78 3 -15 7 -35 10 -45 3 -9 7
-28 10 -42 3 -14 12 -54 21 -90 9 -36 18 -72 20 -80 8 -36 79 -242 110 -322
118 -298 296 -603 502 -863 91 -114 361 -392 448 -461 28 -21 52 -42 55 -45
16 -18 199 -151 280 -204 409 -263 806 -419 1274 -500 191 -32 294 -40 556
-40 256 0 366 8 560 41 461 78 876 243 1288 512 318 207 645 523 878 847 132
183 272 434 354 630 23 55 46 109 51 120 45 99 137 437 169 620 36 216 45 326
44 565 0 270 -4 319 -50 620 -3 19 -15 73 -26 120 -11 47 -21 94 -24 104 -8
43 -59 206 -89 291 -166 463 -429 879 -775 1225 -198 199 -291 276 -515 432
-131 90 -349 210 -515 282 -47 21 -94 42 -105 47 -11 5 -33 13 -50 18 -16 5
-55 19 -85 31 -116 44 -397 118 -517 135 -21 3 -44 8 -51 10 -7 3 -40 7 -75
10 -34 4 -68 8 -74 10 -77 25 -754 24 -793 0 -4 -2 -7 13 -8 33 -6 88 -27 140
-80 199 -67 74 -200 109 -301 78z"/>
<path d="M5248 6839 c-20 -6 -54 -26 -76 -45 -124 -106 -106 -301 36 -377 91
-49 204 -34 274 38 109 110 78 299 -61 370 -42 21 -123 28 -173 14z"/>
</g>
</svg>
