<?xml version="1.0" encoding="UTF-8"?>
<svg width="1110px" height="1110px" viewBox="0 0 1110 1110" version="1.1" xmlns="http://www.w3.org/2000/svg" xmlns:xlink="http://www.w3.org/1999/xlink">
    <!-- Generator: Sketch 53.2 (72643) - https://sketchapp.com -->
    <title>findafilm</title>
    <desc>Created with Sketch.</desc>
    <defs>
        <filter x="-15.9%" y="-17.8%" width="131.8%" height="135.5%" filterUnits="objectBoundingBox" id="filter-1">
            <feOffset dx="0" dy="21" in="SourceAlpha" result="shadowOffsetOuter1"></feOffset>
            <feGaussianBlur stdDeviation="27" in="shadowOffsetOuter1" result="shadowBlurOuter1"></feGaussianBlur>
            <feColorMatrix values="0 0 0 0 0   0 0 0 0 0   0 0 0 0 0  0 0 0 0.414035184 0" type="matrix" in="shadowBlurOuter1" result="shadowMatrixOuter1"></feColorMatrix>
            <feMerge>
                <feMergeNode in="shadowMatrixOuter1"></feMergeNode>
                <feMergeNode in="SourceGraphic"></feMergeNode>
            </feMerge>
        </filter>
    </defs>
    <g id="findafilm" stroke="none" stroke-width="1" fill="none" fill-rule="evenodd">
        <g id="access" filter="url(#filter-1)" transform="translate(76.000000, 107.000000)" fill-rule="nonzero">
            <g id="Group" transform="translate(0.011725, 0.464602)">
                <path d="M83.5901943,174.765487 L874.877767,174.765487 C874.877767,220.557288 912.361701,258.026677 958.173662,258.026677 L958.173662,591.051925 C912.363653,591.051925 874.877767,628.51546 874.877767,674.307261 L83.5901943,674.307261 C83.5901943,628.519363 46.1101652,591.051925 0.302108412,591.051925 L0.302108412,258.026677 C46.1101652,258.026677 83.5901943,220.557288 83.5901943,174.765487 Z" id="Path" stroke="#000000" stroke-width="16.5" fill="#FE3646"></path>
                <rect id="Rectangle" fill="#F1FDFF" x="104.418072" y="278.841487" width="749.635721" height="291.399531"></rect>
                <path d="M405.125076,162.765487 L573.733474,0.231287611 C603.43404,28.8599943 652.035675,28.8599943 681.730385,0.231287611 L850.334878,162.765487 L405.125076,162.765487 L405.125076,162.765487 Z M553.34679,689.299456 L384.734488,857.837558 C355.041731,828.152013 306.445951,828.152013 276.747338,857.837558 L108.135035,689.299456 L553.34679,689.299456 Z" id="Shape" stroke="#000000" stroke-width="10.5" fill="#17A2B8"></path>
            </g>
            <g id="Group" transform="translate(83.043682, 78.000000)" fill="#000003">
                <path d="M771.023789,180.483473 L21.3861154,180.483473 C9.88578463,180.483473 0.562141783,189.803013 0.562141783,201.298283 L0.562141783,492.695863 C0.562141783,504.191133 9.88773681,513.510673 21.3861154,513.510673 L771.025741,513.510673 C782.526072,513.510673 791.849715,504.189181 791.849715,492.695863 L791.849715,201.300235 C791.849715,189.803013 782.52412,180.483473 771.023789,180.483473 Z M24.5621418,205.483473 L767.562142,205.483473 L767.562142,488.483473 L24.5621418,488.483473 L24.5621418,205.483473 Z" id="Shape"></path>
                <path d="M251.455202,657.748894 L251.103808,658.100133 C242.970999,666.229363 242.970999,679.406677 251.103808,687.537858 C255.168261,691.602473 260.501634,693.635757 265.829151,693.635757 C271.15862,693.635757 276.490042,691.604425 280.554494,687.537858 L280.905888,687.186619 C289.036745,679.057389 289.036745,665.880075 280.905888,657.748894 C272.773079,649.619664 259.588011,649.619664 251.455202,657.748894 Z" id="Path"></path>
                <path d="M518.893043,42.3470531 C524.171755,42.3470531 529.456324,40.3527965 533.512967,36.3564779 L533.864361,36.0110929 C542.057688,27.9404027 542.153345,14.7630885 534.079102,6.57336726 C526.00681,-1.61440265 512.823695,-1.7100177 504.628416,6.35872124 L504.277022,6.70605752 C496.083695,14.7747965 495.98999,27.9540619 504.060329,36.1437832 C508.13259,40.2747434 513.508912,42.3470531 518.893043,42.3470531 Z" id="Path"></path>
            </g>
            <path d="M209.564802,454.943119 L209.564802,465.977876 L168.705539,465.977876 L168.705539,454.943119 C170.820418,454.182098 173.992689,453.12514 178.222448,451.772212 L178.222448,391.524978 L168.705539,387.719889 L168.705539,377.192478 L197.890727,376.558296 L233.420522,376.558296 L233.420522,400.65719 L221.619554,400.65719 L218.447251,391.524978 L197.890727,391.524978 L197.890727,413.975 L224.157397,413.975 L224.157397,427.926991 L197.890727,427.926991 L197.890727,451.772212 C204.489151,453.547929 208.38047,454.604888 209.564802,454.943119 Z M241.034049,398.500973 L269.838561,397.486283 L269.838561,452.660066 L278.72101,455.830973 L278.72101,465.977876 L241.034049,465.977876 L241.034049,455.830973 L251.185419,452.660066 L251.185419,411.184602 L241.034049,408.647876 L241.034049,398.500973 Z M248.774469,376.558296 C248.774469,373.091421 249.853041,370.32219 252.010218,368.25052 C254.167395,366.17885 256.72636,365.143031 259.687192,365.143031 C266.793186,365.143031 270.34613,368.948081 270.34613,376.558296 C270.34613,380.10973 269.267558,382.92124 267.110381,384.992909 C264.953204,387.064579 262.478832,388.100398 259.687192,388.100398 C256.218789,388.100398 253.532933,387.106857 251.629542,385.119746 C249.72615,383.132634 248.774469,380.278846 248.774469,376.558296 Z M286.46143,398.500973 L312.728099,397.486283 L313.616344,406.237987 C314.546891,405.476965 315.773503,404.567981 317.296216,403.511007 C318.818929,402.454032 321.631676,401.016569 325.734542,399.198573 C329.837408,397.380577 333.580688,396.471593 336.964495,396.471593 C343.055348,396.471593 347.729161,398.479814 350.986075,402.496316 C354.242989,406.512819 355.871422,412.030142 355.871422,419.048451 L355.871422,452.660066 C356.971159,452.998298 358.536146,453.547917 360.56643,454.308938 C362.596714,455.06996 363.992514,455.5773 364.75387,455.830973 L364.75387,465.977876 L330.492997,465.977876 L330.492997,455.830973 L337.218279,452.660066 L337.218279,421.965686 C337.218279,419.006158 336.435786,416.575153 334.870775,414.6726 C333.305764,412.770046 331.212065,411.818783 328.589615,411.818783 C326.22095,411.818783 323.915766,412.431819 321.673994,413.657909 C319.432222,414.883999 317.761492,416.088932 316.661755,417.272743 L315.012158,419.048451 L315.012158,452.660066 L321.610548,455.830973 L321.610548,465.977876 L286.46143,465.977876 L286.46143,455.830973 L296.232123,452.660066 L296.232123,411.184602 L286.46143,408.647876 L286.46143,398.500973 Z M444.695908,465.090022 L418.048562,465.977876 L416.906533,459.255553 C411.577037,464.582704 405.190198,467.246239 397.745823,467.246239 C389.03252,467.246239 382.518789,464.286755 378.204435,458.367699 C373.890082,452.448643 371.732937,444.11981 371.732937,433.380951 C371.732937,421.373723 374.757169,412.178185 380.805724,405.79406 C386.854279,399.409935 395.800084,396.21792 407.643408,396.21792 C410.435049,396.21792 413.184351,396.640704 415.891396,397.486283 L415.891396,381.378075 L405.740026,378.84135 L405.740026,368.694447 L434.544539,367.679757 L434.544539,452.406394 L444.695908,454.943119 L444.695908,465.090022 Z M415.891396,445.176726 L415.891396,412.706637 C413.776517,411.438268 410.477355,410.804093 405.993811,410.804093 C396.265366,410.804093 391.401216,417.99141 391.401216,432.366261 C391.401216,445.726416 395.461724,452.406394 403.58286,452.406394 C405.951525,452.406394 408.172115,451.793358 410.244697,450.567268 C412.317279,449.341177 413.776523,448.136245 414.622475,446.952434 L415.891396,445.176726 Z M519.308477,465.090022 L494.183837,465.977876 L491.899779,457.733518 C491.138422,458.409981 490.123295,459.276687 488.854368,460.333662 C487.58544,461.390636 485.153365,462.80696 481.558071,464.582677 C477.962776,466.358394 474.557871,467.246239 471.343255,467.246239 C465.167807,467.246239 460.345954,465.512827 456.877552,462.045951 C453.40915,458.579076 451.674975,453.674788 451.674975,447.332942 C451.674975,433.380882 461.826244,426.404956 482.129085,426.404956 L491.011534,426.404956 L491.011534,419.42896 C491.011534,413.087114 487.754669,409.916239 481.24084,409.916239 C479.295151,409.916239 477.391788,410.085352 475.530695,410.423584 C473.669601,410.761816 472.273801,411.100043 471.343255,411.438274 L470.074333,411.818783 L468.170951,420.063142 L456.75066,420.063142 L455.862415,401.291372 C466.098431,397.909054 475.27687,396.21792 483.398006,396.21792 C493.041856,396.21792 499.851665,398.099306 503.827638,401.862135 C507.803611,405.624964 509.791568,412.114688 509.791568,421.331504 L509.791568,452.660066 L519.308477,454.943119 L519.308477,465.090022 Z M469.947441,445.430398 C469.947441,450.503875 472.442961,453.040575 477.434077,453.040575 C479.464361,453.040575 481.600357,452.427539 483.842129,451.201449 C486.083901,449.975359 487.839224,448.728148 489.108152,447.459779 L491.011534,445.684071 L491.011534,437.18604 L483.778683,437.18604 C478.872163,437.18604 475.340367,437.841354 473.18319,439.152002 C471.026013,440.46265 469.947441,442.555428 469.947441,445.430398 Z" id="Finda" fill="#23001E"></path>
            <path d="M540.118786,398.754646 L540.118786,393.047013 C540.118786,384.760335 542.445118,378.207192 547.097853,373.387389 C551.750587,368.567587 558.433506,366.157721 567.146808,366.157721 C571.207377,366.157721 575.077548,366.559365 578.757438,367.362666 C582.437328,368.165966 585.123184,368.948116 586.815088,369.709137 L589.35293,370.850664 L588.972254,389.622434 L577.932639,389.622434 L576.029257,380.236549 C573.914378,379.898317 571.461154,379.729204 568.669514,379.729204 C562.155685,379.729204 558.89882,383.449697 558.89882,390.890796 L558.89882,398.754646 L575.394796,398.754646 L575.01412,411.438274 L558.89882,411.438274 L558.89882,452.660066 L571.080464,455.830973 L571.080464,465.977876 L529.967416,465.977876 L529.967416,455.830973 L540.118786,452.660066 L540.118786,411.438274 L528.698495,411.438274 L528.698495,400.65719 L540.118786,398.754646 Z M585.546166,398.500973 L614.350678,397.486283 L614.350678,452.660066 L623.233127,455.830973 L623.233127,465.977876 L585.546166,465.977876 L585.546166,455.830973 L595.697536,452.660066 L595.697536,411.184602 L585.546166,408.647876 L585.546166,398.500973 Z M593.286586,376.558296 C593.286586,373.091421 594.365158,370.32219 596.522335,368.25052 C598.679512,366.17885 601.238477,365.143031 604.199309,365.143031 C611.305303,365.143031 614.858247,368.948081 614.858247,376.558296 C614.858247,380.10973 613.779675,382.92124 611.622498,384.992909 C609.465321,387.064579 606.990949,388.100398 604.199309,388.100398 C600.730906,388.100398 598.04505,387.106857 596.141659,385.119746 C594.238267,383.132634 593.286586,380.278846 593.286586,376.558296 Z M629.704625,368.694447 L659.016706,367.679757 L659.016706,452.660066 L671.071458,455.830973 L671.071458,465.977876 L629.704625,465.977876 L629.704625,455.830973 L639.855995,452.660066 L639.855995,381.378075 L629.704625,378.84135 L629.704625,368.694447 Z M785.147478,419.048451 L785.147478,452.660066 L793.776142,455.830973 L793.776142,465.977876 L759.769053,465.977876 L759.769053,455.830973 L766.494335,452.660066 L766.494335,422.85354 C766.494335,419.302106 765.923326,416.680849 764.781292,414.98969 C763.639257,413.298531 761.757042,412.452965 759.134592,412.452965 C756.681332,412.452965 754.291554,413.002583 751.965187,414.101836 C749.63882,415.20109 747.925793,416.300326 746.826056,417.39958 L745.049566,419.048451 L745.049566,452.660066 L751.647957,455.830973 L751.647957,465.977876 L719.671141,465.977876 L719.671141,455.830973 L726.269532,452.660066 L726.269532,422.85354 C726.269532,419.217548 725.719672,416.575152 724.619934,414.926272 C723.520197,413.277392 721.659131,412.452965 719.036681,412.452965 C716.583421,412.452965 714.172495,413.002583 711.80383,414.101836 C709.435165,415.20109 707.658693,416.300326 706.474361,417.39958 L704.824763,419.048451 L704.824763,452.660066 L711.550046,455.830973 L711.550046,465.977876 L676.400927,465.977876 L676.400927,455.830973 L686.171621,452.660066 L686.171621,411.057765 L676.527819,408.647876 L676.527819,398.500973 L702.667597,397.486283 L703.555842,406.491659 C704.401793,405.730638 705.543811,404.779375 706.981929,403.637843 C708.420047,402.496311 711.084755,400.97429 714.976133,399.071737 C718.867511,397.169183 722.462752,396.21792 725.761963,396.21792 C734.136885,396.21792 739.889271,399.853857 743.019292,407.125841 C744.28822,405.857472 745.768613,404.546843 747.460517,403.193916 C749.15242,401.840989 751.817128,400.340108 755.45472,398.691228 C759.092313,397.042348 762.60296,396.21792 765.986767,396.21792 C772.331405,396.21792 777.11096,398.205002 780.325577,402.179226 C783.540193,406.153449 785.147478,411.776468 785.147478,419.048451 Z" id="film" fill="#FE3646"></path>
        </g>
    </g>
</svg>