<?xml version="1.0" encoding="UTF-8"?>
<svg width="1110px" height="1110px" viewBox="0 0 1110 1110" version="1.1" xmlns="http://www.w3.org/2000/svg" xmlns:xlink="http://www.w3.org/1999/xlink">
    <!-- Generator: Sketch 53.2 (72643) - https://sketchapp.com -->
    <title>findafilm</title>
    <desc>Created with Sketch.</desc>
    <defs>
        <filter x="-15.7%" y="-17.6%" width="131.5%" height="135.2%" filterUnits="objectBoundingBox" id="filter-1">
            <feOffset dx="0" dy="21" in="SourceAlpha" result="shadowOffsetOuter1"></feOffset>
            <feGaussianBlur stdDeviation="27" in="shadowOffsetOuter1" result="shadowBlurOuter1"></feGaussianBlur>
            <feColorMatrix values="0 0 0 0 0   0 0 0 0 0   0 0 0 0 0  0 0 0 0.414035184 0" type="matrix" in="shadowBlurOuter1" result="shadowMatrixOuter1"></feColorMatrix>
            <feMerge>
                <feMergeNode in="shadowMatrixOuter1"></feMergeNode>
                <feMergeNode in="SourceGraphic"></feMergeNode>
            </feMerge>
        </filter>
    </defs>
    <g id="findafilm" stroke="none" stroke-width="1" fill="none" fill-rule="evenodd">
        <g id="access" filter="url(#filter-1)" transform="translate(75.000000, 106.000000)" fill-rule="nonzero">
            <g id="Group" transform="translate(0.011725, 0.464602)">
                <path d="M84.5901943,175.765487 L875.877767,175.765487 C875.877767,221.557288 913.361701,259.026677 959.173662,259.026677 L959.173662,592.051925 C913.363653,592.051925 875.877767,629.51546 875.877767,675.307261 L84.5901943,675.307261 C84.5901943,629.519363 47.1101652,592.051925 1.30210841,592.051925 L1.30210841,259.026677 C47.1101652,259.026677 84.5901943,221.557288 84.5901943,175.765487 Z" id="Path" stroke="#000000" stroke-width="16.5" fill="#FE3646"></path>
                <rect id="Rectangle" fill="#20E1FF" x="105.418072" y="279.841487" width="749.635721" height="291.399531"></rect>
                <path d="M406.125076,163.765487 L574.733474,1.23128761 C604.43404,29.8599943 653.035675,29.8599943 682.730385,1.23128761 L851.334878,163.765487 L406.125076,163.765487 L406.125076,163.765487 Z M554.34679,690.299456 L385.734488,858.837558 C356.041731,829.152013 307.445951,829.152013 277.747338,858.837558 L109.135035,690.299456 L554.34679,690.299456 Z" id="Shape" stroke="#000000" stroke-width="10.5" fill="#17A2B8"></path>
            </g>
            <g id="Group" transform="translate(84.043682, 78.000000)" fill="#000003">
                <path d="M771.023789,181.483473 L21.3861154,181.483473 C9.88578463,181.483473 0.562141783,190.803013 0.562141783,202.298283 L0.562141783,493.695863 C0.562141783,505.191133 9.88773681,514.510673 21.3861154,514.510673 L771.025741,514.510673 C782.526072,514.510673 791.849715,505.189181 791.849715,493.695863 L791.849715,202.300235 C791.849715,190.803013 782.52412,181.483473 771.023789,181.483473 Z M42.2100891,223.115044 L750.199815,223.115044 L750.199815,472.881053 L42.2100891,472.881053 L42.2100891,223.115044 Z" id="Shape"></path>
                <path d="M251.455202,658.748894 L251.103808,659.100133 C242.970999,667.229363 242.970999,680.406677 251.103808,688.537858 C255.168261,692.602473 260.501634,694.635757 265.829151,694.635757 C271.15862,694.635757 276.490042,692.604425 280.554494,688.537858 L280.905888,688.186619 C289.036745,680.057389 289.036745,666.880075 280.905888,658.748894 C272.773079,650.619664 259.588011,650.619664 251.455202,658.748894 Z" id="Path"></path>
                <path d="M518.893043,43.3470531 C524.171755,43.3470531 529.456324,41.3527965 533.512967,37.3564779 L533.864361,37.0110929 C542.057688,28.9404027 542.153345,15.7630885 534.079102,7.57336726 C526.00681,-0.614402655 512.823695,-0.710017699 504.628416,7.35872124 L504.277022,7.70605752 C496.083695,15.7747965 495.98999,28.9540619 504.060329,37.1437832 C508.13259,41.2747434 513.508912,43.3470531 518.893043,43.3470531 Z" id="Path"></path>
            </g>
            <path d="M210.564802,455.943119 L210.564802,466.977876 L169.705539,466.977876 L169.705539,455.943119 C171.820418,455.182098 174.992689,454.12514 179.222448,452.772212 L179.222448,392.524978 L169.705539,388.719889 L169.705539,378.192478 L198.890727,377.558296 L234.420522,377.558296 L234.420522,401.65719 L222.619554,401.65719 L219.447251,392.524978 L198.890727,392.524978 L198.890727,414.975 L225.157397,414.975 L225.157397,428.926991 L198.890727,428.926991 L198.890727,452.772212 C205.489151,454.547929 209.38047,455.604888 210.564802,455.943119 Z M242.034049,399.500973 L270.838561,398.486283 L270.838561,453.660066 L279.72101,456.830973 L279.72101,466.977876 L242.034049,466.977876 L242.034049,456.830973 L252.185419,453.660066 L252.185419,412.184602 L242.034049,409.647876 L242.034049,399.500973 Z M249.774469,377.558296 C249.774469,374.091421 250.853041,371.32219 253.010218,369.25052 C255.167395,367.17885 257.72636,366.143031 260.687192,366.143031 C267.793186,366.143031 271.34613,369.948081 271.34613,377.558296 C271.34613,381.10973 270.267558,383.92124 268.110381,385.992909 C265.953204,388.064579 263.478832,389.100398 260.687192,389.100398 C257.218789,389.100398 254.532933,388.106857 252.629542,386.119746 C250.72615,384.132634 249.774469,381.278846 249.774469,377.558296 Z M287.46143,399.500973 L313.728099,398.486283 L314.616344,407.237987 C315.546891,406.476965 316.773503,405.567981 318.296216,404.511007 C319.818929,403.454032 322.631676,402.016569 326.734542,400.198573 C330.837408,398.380577 334.580688,397.471593 337.964495,397.471593 C344.055348,397.471593 348.729161,399.479814 351.986075,403.496316 C355.242989,407.512819 356.871422,413.030142 356.871422,420.048451 L356.871422,453.660066 C357.971159,453.998298 359.536146,454.547917 361.56643,455.308938 C363.596714,456.06996 364.992514,456.5773 365.75387,456.830973 L365.75387,466.977876 L331.492997,466.977876 L331.492997,456.830973 L338.218279,453.660066 L338.218279,422.965686 C338.218279,420.006158 337.435786,417.575153 335.870775,415.6726 C334.305764,413.770046 332.212065,412.818783 329.589615,412.818783 C327.22095,412.818783 324.915766,413.431819 322.673994,414.657909 C320.432222,415.883999 318.761492,417.088932 317.661755,418.272743 L316.012158,420.048451 L316.012158,453.660066 L322.610548,456.830973 L322.610548,466.977876 L287.46143,466.977876 L287.46143,456.830973 L297.232123,453.660066 L297.232123,412.184602 L287.46143,409.647876 L287.46143,399.500973 Z M445.695908,466.090022 L419.048562,466.977876 L417.906533,460.255553 C412.577037,465.582704 406.190198,468.246239 398.745823,468.246239 C390.03252,468.246239 383.518789,465.286755 379.204435,459.367699 C374.890082,453.448643 372.732937,445.11981 372.732937,434.380951 C372.732937,422.373723 375.757169,413.178185 381.805724,406.79406 C387.854279,400.409935 396.800084,397.21792 408.643408,397.21792 C411.435049,397.21792 414.184351,397.640704 416.891396,398.486283 L416.891396,382.378075 L406.740026,379.84135 L406.740026,369.694447 L435.544539,368.679757 L435.544539,453.406394 L445.695908,455.943119 L445.695908,466.090022 Z M416.891396,446.176726 L416.891396,413.706637 C414.776517,412.438268 411.477355,411.804093 406.993811,411.804093 C397.265366,411.804093 392.401216,418.99141 392.401216,433.366261 C392.401216,446.726416 396.461724,453.406394 404.58286,453.406394 C406.951525,453.406394 409.172115,452.793358 411.244697,451.567268 C413.317279,450.341177 414.776523,449.136245 415.622475,447.952434 L416.891396,446.176726 Z M520.308477,466.090022 L495.183837,466.977876 L492.899779,458.733518 C492.138422,459.409981 491.123295,460.276687 489.854368,461.333662 C488.58544,462.390636 486.153365,463.80696 482.558071,465.582677 C478.962776,467.358394 475.557871,468.246239 472.343255,468.246239 C466.167807,468.246239 461.345954,466.512827 457.877552,463.045951 C454.40915,459.579076 452.674975,454.674788 452.674975,448.332942 C452.674975,434.380882 462.826244,427.404956 483.129085,427.404956 L492.011534,427.404956 L492.011534,420.42896 C492.011534,414.087114 488.754669,410.916239 482.24084,410.916239 C480.295151,410.916239 478.391788,411.085352 476.530695,411.423584 C474.669601,411.761816 473.273801,412.100043 472.343255,412.438274 L471.074333,412.818783 L469.170951,421.063142 L457.75066,421.063142 L456.862415,402.291372 C467.098431,398.909054 476.27687,397.21792 484.398006,397.21792 C494.041856,397.21792 500.851665,399.099306 504.827638,402.862135 C508.803611,406.624964 510.791568,413.114688 510.791568,422.331504 L510.791568,453.660066 L520.308477,455.943119 L520.308477,466.090022 Z M470.947441,446.430398 C470.947441,451.503875 473.442961,454.040575 478.434077,454.040575 C480.464361,454.040575 482.600357,453.427539 484.842129,452.201449 C487.083901,450.975359 488.839224,449.728148 490.108152,448.459779 L492.011534,446.684071 L492.011534,438.18604 L484.778683,438.18604 C479.872163,438.18604 476.340367,438.841354 474.18319,440.152002 C472.026013,441.46265 470.947441,443.555428 470.947441,446.430398 Z" id="Finda" fill="#23001E"></path>
            <path d="M541.118786,399.754646 L541.118786,394.047013 C541.118786,385.760335 543.445118,379.207192 548.097853,374.387389 C552.750587,369.567587 559.433506,367.157721 568.146808,367.157721 C572.207377,367.157721 576.077548,367.559365 579.757438,368.362666 C583.437328,369.165966 586.123184,369.948116 587.815088,370.709137 L590.35293,371.850664 L589.972254,390.622434 L578.932639,390.622434 L577.029257,381.236549 C574.914378,380.898317 572.461154,380.729204 569.669514,380.729204 C563.155685,380.729204 559.89882,384.449697 559.89882,391.890796 L559.89882,399.754646 L576.394796,399.754646 L576.01412,412.438274 L559.89882,412.438274 L559.89882,453.660066 L572.080464,456.830973 L572.080464,466.977876 L530.967416,466.977876 L530.967416,456.830973 L541.118786,453.660066 L541.118786,412.438274 L529.698495,412.438274 L529.698495,401.65719 L541.118786,399.754646 Z M586.546166,399.500973 L615.350678,398.486283 L615.350678,453.660066 L624.233127,456.830973 L624.233127,466.977876 L586.546166,466.977876 L586.546166,456.830973 L596.697536,453.660066 L596.697536,412.184602 L586.546166,409.647876 L586.546166,399.500973 Z M594.286586,377.558296 C594.286586,374.091421 595.365158,371.32219 597.522335,369.25052 C599.679512,367.17885 602.238477,366.143031 605.199309,366.143031 C612.305303,366.143031 615.858247,369.948081 615.858247,377.558296 C615.858247,381.10973 614.779675,383.92124 612.622498,385.992909 C610.465321,388.064579 607.990949,389.100398 605.199309,389.100398 C601.730906,389.100398 599.04505,388.106857 597.141659,386.119746 C595.238267,384.132634 594.286586,381.278846 594.286586,377.558296 Z M630.704625,369.694447 L660.016706,368.679757 L660.016706,453.660066 L672.071458,456.830973 L672.071458,466.977876 L630.704625,466.977876 L630.704625,456.830973 L640.855995,453.660066 L640.855995,382.378075 L630.704625,379.84135 L630.704625,369.694447 Z M786.147478,420.048451 L786.147478,453.660066 L794.776142,456.830973 L794.776142,466.977876 L760.769053,466.977876 L760.769053,456.830973 L767.494335,453.660066 L767.494335,423.85354 C767.494335,420.302106 766.923326,417.680849 765.781292,415.98969 C764.639257,414.298531 762.757042,413.452965 760.134592,413.452965 C757.681332,413.452965 755.291554,414.002583 752.965187,415.101836 C750.63882,416.20109 748.925793,417.300326 747.826056,418.39958 L746.049566,420.048451 L746.049566,453.660066 L752.647957,456.830973 L752.647957,466.977876 L720.671141,466.977876 L720.671141,456.830973 L727.269532,453.660066 L727.269532,423.85354 C727.269532,420.217548 726.719672,417.575152 725.619934,415.926272 C724.520197,414.277392 722.659131,413.452965 720.036681,413.452965 C717.583421,413.452965 715.172495,414.002583 712.80383,415.101836 C710.435165,416.20109 708.658693,417.300326 707.474361,418.39958 L705.824763,420.048451 L705.824763,453.660066 L712.550046,456.830973 L712.550046,466.977876 L677.400927,466.977876 L677.400927,456.830973 L687.171621,453.660066 L687.171621,412.057765 L677.527819,409.647876 L677.527819,399.500973 L703.667597,398.486283 L704.555842,407.491659 C705.401793,406.730638 706.543811,405.779375 707.981929,404.637843 C709.420047,403.496311 712.084755,401.97429 715.976133,400.071737 C719.867511,398.169183 723.462752,397.21792 726.761963,397.21792 C735.136885,397.21792 740.889271,400.853857 744.019292,408.125841 C745.28822,406.857472 746.768613,405.546843 748.460517,404.193916 C750.15242,402.840989 752.817128,401.340108 756.45472,399.691228 C760.092313,398.042348 763.60296,397.21792 766.986767,397.21792 C773.331405,397.21792 778.11096,399.205002 781.325577,403.179226 C784.540193,407.153449 786.147478,412.776468 786.147478,420.048451 Z" id="film" fill="#FE3646"></path>
        </g>
    </g>
</svg>